<?xml version="1.0" encoding="UTF-8"?>
<svg id="Layer_2" data-name="Layer 2" xmlns="http://www.w3.org/2000/svg" viewBox="0 0 398.79 398.79">
  <defs>
    <style>
      .cls-1 {
        fill: #009245;
      }

      .cls-2 {
        fill: #8cc63f;
      }

      .cls-3 {
        fill: none;
      }
    </style>
  </defs>
  <g id="Graphic_Element" data-name="Graphic Element">
    <g>
      <circle class="cls-3" cx="199.4" cy="199.4" r="166.71" transform="translate(-82.59 199.4) rotate(-45)"/>
      <path class="cls-1" d="m199.4,398.79C89.45,398.79,0,309.34,0,199.39S89.45,0,199.4,0s199.4,89.45,199.4,199.39-89.45,199.4-199.4,199.4Zm0-366.1c-91.92,0-166.71,74.78-166.71,166.71s74.79,166.71,166.71,166.71,166.71-74.79,166.71-166.71S291.32,32.69,199.4,32.69Z"/>
      <path class="cls-2" d="m252.68,272.27c-8.72,8.57-20.42,13.94-35.09,16.1v25.71h-23.62v-25.25c-10.35-.77-19.96-2.78-28.83-6.02-8.88-3.24-16.64-7.64-23.28-13.2l10.19-21.77c13.43,10.5,27.94,16.29,43.54,17.37v-48.17c-10.35-2.62-19.07-5.52-26.17-8.68-7.1-3.16-13.05-7.88-17.83-14.13-4.79-6.25-7.18-14.4-7.18-24.43,0-8.34,2.08-15.94,6.25-22.81,4.17-6.87,10-12.58,17.49-17.14,7.49-4.55,16.1-7.45,25.82-8.69v-25.71h23.62v25.47c8.95,1.08,17.37,3.24,25.24,6.49,7.87,3.24,14.51,7.34,19.92,12.27l-10.19,21.77c-11.27-9.26-23.47-14.82-36.59-16.68v50.26c10.34,2.63,18.91,5.44,25.71,8.45,6.79,3.01,12.5,7.53,17.14,13.55,4.63,6.02,6.95,13.9,6.95,23.62,0,12.51-4.36,23.05-13.08,31.61Zm-72.84-91.01c3.7,3.32,8.95,6.14,15.75,8.45v-44.7c-6.64,1.39-11.85,4.1-15.63,8.11-3.79,4.02-5.67,9.03-5.67,15.06,0,5.41,1.85,9.77,5.56,13.08Zm50.95,75.04c3.39-3.78,5.1-8.69,5.1-14.71,0-4.78-1.7-8.64-5.1-11.58-3.4-2.93-8.34-5.4-14.82-7.41v41.46c6.48-1.39,11.42-3.98,14.82-7.76Z"/>
    </g>
  </g>
</svg>